<svg xmlns="http://www.w3.org/2000/svg" viewBox="0 0 680 360" role="img" aria-label="银白卡片相机外框">
  <defs>
    <linearGradient id="shell" x1="0" y1="0" x2="1" y2="1"><stop stop-color="#fffefd"/><stop offset=".48" stop-color="#f2eff1"/><stop offset="1" stop-color="#d7d2d7"/></linearGradient>
    <linearGradient id="trim" x1="0" y1="0" x2="1" y2="0"><stop stop-color="#c5b6e7"/><stop offset=".5" stop-color="#f2bfd2"/><stop offset="1" stop-color="#ac98d7"/></linearGradient>
    <filter id="shadow" x="-20%" y="-20%" width="140%" height="150%"><feDropShadow dx="0" dy="9" stdDeviation="9" flood-color="#5d5561" flood-opacity=".2"/></filter>
    <mask id="cut"><rect width="680" height="360" fill="#fff"/><rect x="78" y="58" width="456" height="236" rx="15" fill="#000"/></mask>
  </defs>
  <g filter="url(#shadow)">
    <rect x="48" y="30" width="624" height="300" rx="38" fill="url(#shell)" stroke="#9b969d" stroke-width="3" mask="url(#cut)"/>
    <rect x="54" y="36" width="612" height="288" rx="32" fill="none" stroke="#fff" stroke-width="4"/>
    <rect x="72" y="52" width="468" height="248" rx="20" fill="none" stroke="#59656f" stroke-width="5"/>
    <rect x="80" y="60" width="452" height="232" rx="13" fill="none" stroke="url(#trim)" stroke-width="3"/>
    <path d="M84 313H535" stroke="url(#trim)" stroke-width="4" stroke-linecap="round"/>
  </g>
  <g fill="#fff" stroke="#b1a9af" stroke-width="2"><rect x="563" y="64" width="66" height="48" rx="12"/><rect x="563" y="121" width="66" height="48" rx="12"/><rect x="563" y="178" width="66" height="48" rx="12"/><rect x="563" y="235" width="66" height="48" rx="12"/></g>
  <g transform="translate(650 302)"><circle r="17" fill="#f8f6f7" stroke="#aaa2a8" stroke-width="2"/><path d="M0-6c-7-7-15 5 0 14 15-9 7-21 0-14Z" fill="#d87c9e"/></g>
  <rect x="588" y="42" width="50" height="8" rx="4" fill="#b6adb3"/><circle cx="60" cy="48" r="7" fill="#f2a9c2" stroke="#fff" stroke-width="3"/>
</svg>
